<svg width="24" height="24" viewBox="0 0 24 24" fill="none" xmlns="http://www.w3.org/2000/svg">
<path d="M21.08 8.58003V15.42C21.08 16.54 20.48 17.58 19.51 18.15L13.57 21.58C12.6 22.14 11.4 22.14 10.42 21.58L4.48004 18.15C3.51004 17.59 2.91003 16.55 2.91003 15.42V8.58003C2.91003 7.46003 3.51004 6.41999 4.48004 5.84999L10.42 2.42C11.39 1.86 12.59 1.86 13.57 2.42L19.51 5.84999C20.48 6.41999 21.08 7.45003 21.08 8.58003Z" fill="white" stroke="#00B74F" stroke-width="1.5" stroke-linecap="round" stroke-linejoin="round"/>
<path d="M9.75 12V10.8C9.75 9.26001 10.84 8.63005 12.17 9.40005L13.21 10L14.25 10.6C15.58 11.37 15.58 12.63 14.25 13.4L13.21 14L12.17 14.6C10.84 15.37 9.75 14.74 9.75 13.2V12Z" fill="white" stroke="#00B74F" stroke-width="1.5" stroke-miterlimit="10" stroke-linecap="round" stroke-linejoin="round"/>
</svg>
