<svg width="42" height="42" viewBox="0 0 42 42" fill="none" xmlns="http://www.w3.org/2000/svg">
<g clip-path="url(#clip0_205_1996)">
<g clip-path="url(#clip1_205_1996)">
<path d="M21 42C26.5695 42 31.911 39.7875 35.8492 35.8492C39.7875 31.911 42 26.5695 42 21C42 15.4305 39.7875 10.089 35.8492 6.15076C31.911 2.21249 26.5695 0 21 0C15.4305 0 10.089 2.21249 6.15076 6.15076C2.21249 10.089 0 15.4305 0 21C0 26.5695 2.21249 31.911 6.15076 35.8492C10.089 39.7875 15.4305 42 21 42ZM19.0312 28.2188V22.9688H13.7812C12.6902 22.9688 11.8125 22.091 11.8125 21C11.8125 19.909 12.6902 19.0312 13.7812 19.0312H19.0312V13.7812C19.0312 12.6902 19.909 11.8125 21 11.8125C22.091 11.8125 22.9688 12.6902 22.9688 13.7812V19.0312H28.2188C29.3098 19.0312 30.1875 19.909 30.1875 21C30.1875 22.091 29.3098 22.9688 28.2188 22.9688H22.9688V28.2188C22.9688 29.3098 22.091 30.1875 21 30.1875C19.909 30.1875 19.0312 29.3098 19.0312 28.2188Z" fill="#6B7280"/>
</g>
</g>
<defs>
<clipPath id="clip0_205_1996">
<rect width="42" height="42" fill="white"/>
</clipPath>
<clipPath id="clip1_205_1996">
<path d="M0 0H42V42H0V0Z" fill="white"/>
</clipPath>
</defs>
</svg>
