<?xml version="1.0" encoding="utf-8"?>
<!-- Generator: Adobe Illustrator 26.4.1, SVG Export Plug-In . SVG Version: 6.00 Build 0)  -->
<svg version="1.1" id="Layer_1" xmlns="http://www.w3.org/2000/svg" xmlns:xlink="http://www.w3.org/1999/xlink" x="0px" y="0px"
	 viewBox="0 0 512 512" style="enable-background:new 0 0 512 512;" xml:space="preserve">
<style type="text/css">
	.st0{fill:#03DB2B;}
</style>
<g id="_18._google_ads_logo">
	<path class="st0" d="M499.1,346.6C375.1,131.9,317.8,23.6,306,35.3C260.7,7.7,201.7,22.1,174.1,67.4c-0.8,1.3-1.5,2.6-2.3,3.9
		C155.6,99.1,230.1-29.8,13.8,345.1C4.7,360,0,377.2,0,394.7c0,98,130.3,132.5,179.1,48c7.6-13.2-27.3,47.4,76.9-133.3l76.8,133.3
		c26.5,45.9,85.2,61.7,131.1,35.1c45.9-26.5,61.7-85.2,35.1-131.1V346.6z M96,469.3c-41.2,0-74.7-33.3-74.8-74.6
		c0-13.1,3.4-26,10-37.4l0,0c0.3-0.4,0.5-0.9,0.7-1.4c44.9-74.1,161.6-23.7,134.8,61.2C157.1,448.1,128.4,469.2,96,469.3z
		 M190.8,379.7c-8.3-52.4-57.4-88.1-109.8-79.9c-6.7,1.1-13.2,2.8-19.5,5.2l99.6-172.6c3.9,25,11.4,32.6,82.5,155.8L190.8,379.7z
		 M416,469.3c-26.7,0-51.3-14.2-64.6-37.3c-176.6-305.9-170-287.8-170-314.7c0-41.2,33.5-74.6,74.7-74.6c12.6,0,25.1,3.2,36.1,9.3
		c22.6,10,19.2,11.9,187.8,303.9c21.4,35.3,10.1,81.2-25.1,102.6C443.2,465.6,429.7,469.4,416,469.3z"/>
</g>
</svg>
