<svg width="20" height="20" viewBox="0 0 20 20" fill="none" xmlns="http://www.w3.org/2000/svg">
<g clip-path="url(#clip0_205_1993)">
<path d="M20 20H0V0H20V20Z" stroke="#E5E7EB"/>
<path d="M2.5 2.5C2.5 1.80859 1.94141 1.25 1.25 1.25C0.558594 1.25 0 1.80859 0 2.5V15.625C0 17.3516 1.39844 18.75 3.125 18.75H18.75C19.4414 18.75 20 18.1914 20 17.5C20 16.8086 19.4414 16.25 18.75 16.25H3.125C2.78125 16.25 2.5 15.9688 2.5 15.625V2.5ZM18.3828 5.88281C18.8711 5.39453 18.8711 4.60156 18.3828 4.11328C17.8945 3.625 17.1016 3.625 16.6133 4.11328L12.5 8.23047L10.2578 5.98828C9.76953 5.5 8.97656 5.5 8.48828 5.98828L4.11328 10.3633C3.625 10.8516 3.625 11.6445 4.11328 12.1328C4.60156 12.6211 5.39453 12.6211 5.88281 12.1328L9.375 8.64453L11.6172 10.8867C12.1055 11.375 12.8984 11.375 13.3867 10.8867L18.3867 5.88672L18.3828 5.88281Z" fill="#6B7280"/>
</g>
<defs>
<clipPath id="clip0_205_1993">
<rect width="20" height="20" fill="white"/>
</clipPath>
</defs>
</svg>
