<svg width="34" height="22" viewBox="0 0 34 22" fill="none" xmlns="http://www.w3.org/2000/svg">
<rect width="34" height="22" rx="4" fill="#FFDBDB"/>
<path d="M22.2908 7.05091C21.3517 6.95758 20.4125 6.88758 19.4675 6.83508V6.82925L19.3392 6.07091C19.2517 5.53425 19.1233 4.72925 17.7583 4.72925H16.23C14.8708 4.72925 14.7425 5.49925 14.6492 6.06508L14.5267 6.81175C13.9842 6.84675 13.4417 6.88175 12.8992 6.93425L11.7092 7.05091C11.4642 7.07425 11.2892 7.29008 11.3125 7.52925C11.3358 7.76841 11.5458 7.94341 11.7908 7.92008L12.9808 7.80341C16.0375 7.50008 19.1175 7.61675 22.2092 7.92591C22.2267 7.92591 22.2383 7.92591 22.2558 7.92591C22.4775 7.92591 22.67 7.75675 22.6933 7.52925C22.7108 7.29008 22.5358 7.07425 22.2908 7.05091Z" fill="#E13437"/>
<path d="M21.2175 8.74825C21.0775 8.60242 20.885 8.52075 20.6867 8.52075H13.3133C13.115 8.52075 12.9167 8.60242 12.7825 8.74825C12.6484 8.89409 12.5725 9.09242 12.5842 9.29659L12.9459 15.2816C13.01 16.1683 13.0917 17.2766 15.1275 17.2766H18.8725C20.9083 17.2766 20.99 16.1741 21.0542 15.2816L21.4158 9.30242C21.4275 9.09242 21.3517 8.89409 21.2175 8.74825ZM17.9683 14.3541H16.0258C15.7867 14.3541 15.5883 14.1558 15.5883 13.9166C15.5883 13.6774 15.7867 13.4791 16.0258 13.4791H17.9683C18.2075 13.4791 18.4058 13.6774 18.4058 13.9166C18.4058 14.1558 18.2075 14.3541 17.9683 14.3541ZM18.4583 12.0208H15.5417C15.3025 12.0208 15.1042 11.8224 15.1042 11.5833C15.1042 11.3441 15.3025 11.1458 15.5417 11.1458H18.4583C18.6975 11.1458 18.8958 11.3441 18.8958 11.5833C18.8958 11.8224 18.6975 12.0208 18.4583 12.0208Z" fill="#E13437"/>
</svg>
