<svg width="24" height="24" viewBox="0 0 24 24" fill="none" xmlns="http://www.w3.org/2000/svg">
<path d="M8.25005 5.49001C8.25005 4.99001 7.85005 4.59002 7.35005 4.59002L2.70005 4.59002C2.20005 4.59002 1.80005 4.99002 1.80005 5.49002C1.80005 5.99002 2.20005 6.39001 2.70005 6.39001L7.35005 6.39001C7.84005 6.39001 8.25005 5.98001 8.25005 5.49001Z" fill="white"/>
<path d="M15.75 12C15.75 12.5 16.15 12.9 16.65 12.9L21.3 12.9C21.8 12.9 22.2 12.5 22.2 12C22.2 11.5 21.8 11.1 21.3 11.1L16.65 11.1C16.16 11.1 15.75 11.5 15.75 12Z" fill="white"/>
<path d="M8.25005 18.51C8.25005 18.01 7.85005 17.61 7.35005 17.61L2.70005 17.61C2.20005 17.61 1.80005 18.01 1.80005 18.51C1.80005 19.01 2.20005 19.41 2.70005 19.41L7.35005 19.41C7.84005 19.41 8.25005 19.01 8.25005 18.51Z" fill="white"/>
<path d="M10.17 16.65L10.17 20.37C10.17 20.87 10.57 21.27 11.07 21.27C11.57 21.27 11.97 20.87 11.97 20.37L11.97 19.41L21.3 19.41C21.8 19.41 22.2 19.01 22.2 18.51C22.2 18.01 21.8 17.61 21.3 17.61L11.97 17.61L11.97 16.65C11.97 16.15 11.57 15.75 11.07 15.75C10.57 15.75 10.17 16.16 10.17 16.65Z" fill="white"/>
<path d="M10.17 3.63L10.17 7.35C10.17 7.85 10.57 8.25 11.07 8.25C11.57 8.25 11.97 7.85 11.97 7.35L11.97 6.39L21.3 6.39C21.8 6.39 22.2 5.99 22.2 5.49C22.2 4.99 21.8 4.59 21.3 4.59L11.97 4.59L11.97 3.63C11.97 3.13 11.57 2.73 11.07 2.73C10.57 2.73 10.17 3.13 10.17 3.63Z" fill="white"/>
<path d="M12.03 10.14L12.03 11.1L2.70005 11.1C2.20005 11.1 1.80005 11.5 1.80005 12C1.80005 12.5 2.20005 12.9 2.70005 12.9L12.03 12.9L12.03 13.86C12.03 14.36 12.43 14.76 12.93 14.76C13.43 14.76 13.83 14.36 13.83 13.86L13.83 10.14C13.83 9.64001 13.43 9.24001 12.93 9.24001C12.43 9.24001 12.03 9.64001 12.03 10.14Z" fill="white"/>
</svg>
