<svg width="11" height="12" viewBox="0 0 11 12" fill="none" xmlns="http://www.w3.org/2000/svg">
<path d="M9.30469 10.3221H1.52484C1.34764 10.3221 1.20068 10.1752 1.20068 9.99799C1.20068 9.82078 1.34764 9.67383 1.52484 9.67383H9.30469C9.48189 9.67383 9.62885 9.82078 9.62885 9.99799C9.62885 10.1752 9.48189 10.3221 9.30469 10.3221Z" fill="#FEFDFF"/>
<path d="M8.44883 2.31718C7.61034 1.47868 6.78913 1.45707 5.92903 2.31718L5.40605 2.84015C5.36283 2.88338 5.34554 2.95253 5.36283 3.01304C5.69131 4.15841 6.6076 5.0747 7.75297 5.40318C7.77026 5.4075 7.78754 5.41183 7.80483 5.41183C7.85238 5.41183 7.8956 5.39454 7.93017 5.35996L8.44883 4.83698C8.87672 4.41341 9.08418 4.00281 9.08418 3.58788C9.08851 3.15999 8.88104 2.74507 8.44883 2.31718Z" fill="#FEFDFF"/>
<path d="M6.97506 5.79675C6.84971 5.73624 6.7287 5.67573 6.612 5.60658C6.51691 5.55039 6.42615 5.48988 6.33538 5.42505C6.2619 5.37751 6.17546 5.30835 6.09334 5.2392C6.0847 5.23487 6.05444 5.20894 6.01986 5.17437C5.87723 5.05335 5.71732 4.89775 5.57469 4.72486C5.56172 4.71622 5.54011 4.68596 5.50985 4.64706C5.46663 4.5952 5.39316 4.50876 5.32832 4.40935C5.27646 4.34452 5.21595 4.24943 5.15976 4.15434C5.09061 4.03764 5.0301 3.92095 4.96959 3.79993C4.89025 3.62992 4.66712 3.57942 4.53446 3.71207L2.10401 6.14252C2.04782 6.19871 1.99596 6.30676 1.98299 6.38024L1.7496 8.03562C1.70637 8.32952 1.7885 8.60614 1.97002 8.79199C2.12562 8.94327 2.34173 9.02539 2.57512 9.02539C2.62699 9.02539 2.67885 9.02106 2.73072 9.01242L4.39042 8.77903C4.46822 8.76606 4.57627 8.71419 4.62814 8.65801L7.0626 6.22355C7.1926 6.09354 7.14375 5.86985 6.97506 5.79675Z" fill="#FEFDFF"/>
</svg>
