<svg width="34" height="22" viewBox="0 0 34 22" fill="none" xmlns="http://www.w3.org/2000/svg">
<rect width="34" height="22" rx="4" fill="#434343" fill-opacity="0.32"/>
<path d="M22.25 16.8333H11.75C11.5108 16.8333 11.3125 16.6349 11.3125 16.3958C11.3125 16.1566 11.5108 15.9583 11.75 15.9583H22.25C22.4892 15.9583 22.6875 16.1566 22.6875 16.3958C22.6875 16.6349 22.4892 16.8333 22.25 16.8333Z" fill="#FEFDFF"/>
<path d="M21.095 6.02989C19.9633 4.89822 18.855 4.86905 17.6941 6.02989L16.9883 6.73572C16.93 6.79406 16.9066 6.88739 16.93 6.96906C17.3733 8.51489 18.61 9.75156 20.1558 10.1949C20.1791 10.2007 20.2025 10.2066 20.2258 10.2066C20.29 10.2066 20.3483 10.1832 20.395 10.1366L21.095 9.43072C21.6725 8.85906 21.9525 8.30489 21.9525 7.74489C21.9583 7.16739 21.6783 6.60739 21.095 6.02989Z" fill="#FEFDFF"/>
<path d="M19.1059 10.7257C18.9367 10.6441 18.7734 10.5624 18.6159 10.4691C18.4875 10.3932 18.365 10.3116 18.2425 10.2241C18.1434 10.1599 18.0267 10.0666 17.9159 9.97322C17.9042 9.96739 17.8634 9.93239 17.8167 9.88572C17.6242 9.72239 17.4084 9.51239 17.2159 9.27905C17.1984 9.26739 17.1692 9.22655 17.1284 9.17405C17.07 9.10405 16.9709 8.98739 16.8834 8.85322C16.8134 8.76572 16.7317 8.63739 16.6559 8.50905C16.5625 8.35155 16.4809 8.19405 16.3992 8.03072C16.2921 7.80127 15.991 7.73311 15.8119 7.91215L12.5317 11.1924C12.4559 11.2682 12.3859 11.4141 12.3684 11.5132L12.0534 13.7474C11.995 14.1441 12.1059 14.5174 12.3509 14.7682C12.5609 14.9724 12.8525 15.0832 13.1675 15.0832C13.2375 15.0832 13.3075 15.0774 13.3775 15.0657L15.6175 14.7507C15.7225 14.7332 15.8684 14.6632 15.9384 14.5874L19.224 11.3017C19.3995 11.1263 19.3335 10.8244 19.1059 10.7257Z" fill="#FEFDFF"/>
</svg>
