<svg width="16" height="16" viewBox="0 0 16 16" fill="none" xmlns="http://www.w3.org/2000/svg">
<path d="M14.18 6.12C13.9867 5.81334 13.78 5.52667 13.5667 5.26C13.32 4.94667 12.8533 4.92 12.5733 5.2L10.5733 7.2C10.72 7.64 10.7467 8.14667 10.6133 8.67334C10.38 9.61334 9.62001 10.3733 8.68001 10.6067C8.15334 10.74 7.64667 10.7133 7.20667 10.5667C7.20667 10.5667 6.25334 11.52 5.56667 12.2067C5.23334 12.54 5.34001 13.1267 5.78667 13.3C6.50001 13.5733 7.24001 13.7133 8.00001 13.7133C9.18667 13.7133 10.34 13.3667 11.3933 12.72C12.4667 12.0533 13.4333 11.0733 14.2133 9.82667C14.8467 8.82 14.8133 7.12667 14.18 6.12Z" fill="#292D32"/>
<path d="M9.34672 6.65332L6.65338 9.34666C6.31338 8.99999 6.09338 8.51999 6.09338 7.99999C6.09338 6.95332 6.94672 6.09332 8.00005 6.09332C8.52005 6.09332 9.00005 6.31332 9.34672 6.65332Z" fill="#292D32"/>
<path d="M12.1667 3.83332L9.90671 6.09332C9.42004 5.59998 8.74671 5.30665 8.00004 5.30665C6.50671 5.30665 5.30671 6.51332 5.30671 7.99998C5.30671 8.74665 5.60671 9.41998 6.09337 9.90665L3.84004 12.1667H3.83337C3.09337 11.5667 2.41337 10.8 1.83337 9.89332C1.16671 8.84665 1.16671 7.14665 1.83337 6.09998C2.60671 4.88665 3.55337 3.93332 4.60671 3.27998C5.66004 2.63998 6.81337 2.28665 8.00004 2.28665C9.48671 2.28665 10.9267 2.83332 12.1667 3.83332Z" fill="#292D32"/>
<path d="M9.90672 7.99999C9.90672 9.04666 9.05339 9.90666 8.00005 9.90666C7.96005 9.90666 7.92672 9.90666 7.88672 9.89332L9.89339 7.88666C9.90672 7.92666 9.90672 7.95999 9.90672 7.99999Z" fill="#292D32"/>
<path d="M14.5133 1.48667C14.3133 1.28667 13.9867 1.28667 13.7867 1.48667L1.48667 13.7933C1.28667 13.9933 1.28667 14.32 1.48667 14.52C1.58667 14.6133 1.71334 14.6667 1.84667 14.6667C1.98 14.6667 2.10667 14.6133 2.20667 14.5133L14.5133 2.20667C14.72 2.00667 14.72 1.68667 14.5133 1.48667Z" fill="#292D32"/>
</svg>
