<svg width="12" height="11" viewBox="0 0 12 11" fill="none" xmlns="http://www.w3.org/2000/svg">
<path d="M10.8087 4.08438C9.52506 2.06718 7.64678 0.905762 5.66848 0.905762C4.67933 0.905762 3.71796 1.19473 2.83995 1.73376C1.96194 2.27835 1.17284 3.073 0.528227 4.08438C-0.0274756 4.95684 -0.0274756 6.37388 0.528227 7.24633C1.8119 9.26909 3.69018 10.425 5.66848 10.425C6.65763 10.425 7.619 10.136 8.49701 9.59696C9.37502 9.05237 10.1641 8.25771 10.8087 7.24633C11.3644 6.37944 11.3644 4.95684 10.8087 4.08438ZM5.66848 7.91318C4.42371 7.91318 3.42344 6.90735 3.42344 5.66814C3.42344 4.42892 4.42371 3.4231 5.66848 3.4231C6.91326 3.4231 7.91352 4.42892 7.91352 5.66814C7.91352 6.90735 6.91326 7.91318 5.66848 7.91318Z" fill="#FEFDFF"/>
</svg>
