<svg width="86" height="86" viewBox="0 0 86 86" fill="none" xmlns="http://www.w3.org/2000/svg">
<g clip-path="url(#clip0_270_5750)">
<mask id="mask0_270_5750" style="mask-type:luminance" maskUnits="userSpaceOnUse" x="0" y="0" width="86" height="86">
<path d="M0 0H86V86H0V0Z" fill="white"/>
</mask>
<g mask="url(#mask0_270_5750)">
<path d="M78.833 52.6836V57.6411C78.833 58.4639 78.7973 59.2938 78.7254 60.1163C77.7201 71.4364 69.8568 78.8334 58.5108 78.8334H27.4887C21.744 78.8334 16.8967 76.9688 13.4139 73.5883C12.0495 72.3346 10.9006 70.8616 10.0029 69.173C11.1878 67.7325 12.5163 66.1555 13.8089 64.5747C15.9991 61.9522 18.1175 59.362 19.446 57.6771C21.4208 55.2342 26.627 48.8036 33.8439 51.8214C35.316 52.4319 36.6087 53.2943 37.7936 54.0486C40.7018 55.9887 41.9226 56.5635 43.9693 55.4497C46.2311 54.2282 47.7034 51.8214 49.2472 49.3065C50.0731 47.9737 50.8988 46.684 51.7964 45.4985C55.7101 40.3971 61.7422 39.0319 66.769 42.0496C69.2823 43.5585 71.4367 45.4626 73.4473 47.3989C73.8781 47.8299 74.309 48.2289 74.704 48.6239C75.2425 49.1628 77.0378 50.959 78.833 52.6836Z" fill="#A4A4A4"/>
<path d="M58.547 7.1665H27.4891C15.3172 7.1665 7.16675 15.6808 7.16675 28.3588V57.6413C7.16675 62.0565 8.17209 65.9759 10.0033 69.1733C11.1881 67.7327 12.5166 66.1556 13.8092 64.5713C15.9994 61.9524 18.1178 59.3621 19.4463 57.6772C21.4211 55.2343 26.6273 48.8038 33.8442 51.8215C35.3165 52.4322 36.609 53.2944 37.7938 54.0488C40.7022 55.9888 41.923 56.5636 43.9695 55.4463C46.2316 54.2285 47.7037 51.8215 49.2476 49.3031C50.0734 47.9738 50.8993 46.6842 51.7969 45.4987C55.7106 40.3973 61.7427 39.032 66.7693 42.0498C69.2826 43.5586 71.437 45.4627 73.4477 47.3991C73.8786 47.8302 74.3094 48.229 74.7043 48.6241C75.243 49.1594 77.0382 50.9556 78.8335 52.6837V28.3588C78.8335 15.6808 70.683 7.1665 58.547 7.1665Z" fill="#DBDBDB"/>
<path d="M41.045 31.5212C41.045 36.5687 36.8406 40.7719 31.7958 40.7719C26.7547 40.7719 22.5503 36.5687 22.5503 31.5212C22.5503 26.4773 26.7547 22.2705 31.7958 22.2705C36.8406 22.2705 41.045 26.4773 41.045 31.5212Z" fill="#A4A4A4"/>
</g>
</g>
<defs>
<clipPath id="clip0_270_5750">
<rect width="86" height="86" fill="white"/>
</clipPath>
</defs>
</svg>
