<?xml version="1.0" encoding="utf-8"?>
<!-- Generator: Adobe Illustrator 26.4.1, SVG Export Plug-In . SVG Version: 6.00 Build 0)  -->
<svg version="1.1" id="Capa_1" xmlns="http://www.w3.org/2000/svg" xmlns:xlink="http://www.w3.org/1999/xlink" x="0px" y="0px"
	 viewBox="0 0 512 512" style="enable-background:new 0 0 512 512;" xml:space="preserve">
<style type="text/css">
	.st0{fill:#00E2AC;}
</style>
<g>
	<path class="st0" d="M481.9,156.9c0.8-2.5,1.3-5.1,1.3-7.8V25.3c0-14-11.4-25.3-25.4-25.3H302.3c-14,0-25.4,11.4-25.4,25.3v8.9
		c-33.5-0.7-68.4,6.3-99.2,19.8c-28.2,12.3-53.4,29.7-75,51.8H76c-4.1,0-7.5,3.4-7.5,7.5s3.4,7.5,7.5,7.5h104.9
		c5.8,0,10.4,4.6,10.4,10.3v123.7c0,5.7-4.7,10.3-10.4,10.3h-14.3c-10.7,0-19.5,8.7-19.5,19.4v17.5L101,268.9
		c-3.3-2.4-7.3-3.7-11.4-3.7H25.4c-5.8,0-10.4-4.6-10.4-10.3V131.2c0-5.7,4.7-10.3,10.4-10.3H41c4.1,0,7.5-3.4,7.5-7.5
		s-3.4-7.5-7.5-7.5H25.4c-14,0-25.4,11.4-25.4,25.3v123.7c0,14,11.4,25.3,25.4,25.3h8.9c1.8,61.1,26.4,118.4,69.9,161.8
		c45.1,45.1,105.1,70,168.9,70c33.2,0,65.3-6.7,95.5-19.8c29.1-12.7,55.1-30.9,77.2-53.9c2.9-3,2.8-7.7-0.2-10.6
		c-3-2.9-7.7-2.8-10.6,0.2c-16.5,17.2-35.2,31.4-55.5,42.4c-9.5-12.7-23.5-28-32.9-42.6l1.8-1.3c0.8-0.6,1.7-0.8,2.6-0.8h64.2
		c14,0,25.4-11.4,25.4-25.3V276.5c0-1.7-0.2-3.3-0.5-4.9c12.9-15.4,20-35.1,20-55.9c-0.1-14.8-4.3-29-11.9-41.4h9.6
		c5.3,0,10.2-1.6,14.2-4.3c16.4,31.7,25.1,67.1,25.1,103c0,46.3-14,90.7-40.5,128.5c-2.4,3.4-1.6,8.1,1.8,10.4
		c2.2,1.6,7,2.3,10.4-1.8c28.3-40.3,43.2-87.7,43.2-137.1C512,232.4,501.6,192.3,481.9,156.9L481.9,156.9z M180.9,105.8h-56.6
		c17.6-15.7,37.3-28.4,58.4-37.7l5,5.8c8.4,11.1,13.7,26.9,11.9,40.2C195,109,188.3,105.8,180.9,105.8z M355.6,464.4
		c3.6,4.4,7,8.6,10.2,12.7c-28.7,13-60.1,19.9-92.7,19.9c-83.9,0-157.2-46.4-195.5-114.9c10.6-8.7,24.2-19.3,35.1-18.1
		c4.4,0.5,8.4,3.1,12,7.9c9.1,12.1,24.5,14.4,35.3,15.1c16.1-1,30.5-9.2,39.4-22.5c2.3-3.4,1.5-8.1-1.9-10.4
		c-3.4-2.3-8.1-1.5-10.4,1.9c-6.4,9.4-15,14.5-26.7,16c-12.2-0.9-19.6-3.7-23.7-9.2c-6.2-8.1-13.6-12.8-22.3-13.8
		c-15.9-1.8-31.5,9.3-43.8,19.3c-12.7-26.9-20.2-56.8-21.2-88.2h40.3c1,0,1.9,0.3,2.6,0.8l48.5,34.9c2.4,1.7,5.1,2.6,7.9,2.6
		c2.1,0,4.2-0.5,6.2-1.5c4.5-2.3,7.3-6.9,7.3-12v-20.5c0-2.4,2-4.4,4.5-4.4h14.3c14,0,25.4-11.4,25.4-25.3v-32
		c8.9,5.5,23.1,10.4,34.6,10.1c12.4,0,24.8-3.7,35.5-11c13.9-9.6,23.5-24.5,26.3-40.9c0.4-2.1,0.7-4.3,1-6.6h13c2.5,0,4.5,2,4.5,4.4
		v20.5c0,5.1,2.8,9.7,7.3,12c3.8,1.8,8.5,2.4,14-1.1l30.9-22.2c-1.2,11.6-4.3,23.8-18.5,38c-6.7,6.8-10.5,15.9-10.7,25.2h-84.3
		c-14,0-25.4,11.4-25.4,25.3v3.2c-13.9,5.3-25.1,17-30.1,31.8c-1.1,3.2-2.8,8.7-4.4,13.9c-1.2,4,1,8.2,5,9.4c3,0.8,7.3-0.2,9.4-5
		c1.1-3.5,2.5-8.3,4.2-13.5c2.9-8.5,8.6-15.6,15.9-20v103.9c0,14,11.4,25.3,25.4,25.3h14.3c2.5,0,4.5,2,4.5,4.4v20.5
		c0,5.1,2.8,9.7,7.3,12c2,1,4.1,1.5,6.2,1.5c2.8,0,5.5-0.9,7.9-2.6l34.5-24.9C340.7,446.3,348.2,455.5,355.6,464.4L355.6,464.4z
		 M425.6,400.2c0,5.7-4.7,10.3-10.4,10.3H351c-4.1,0-8.1,1.3-11.4,3.7l-46.1,33.2V430c0-10.7-8.7-19.4-19.5-19.4h-14.3
		c-5.8,0-10.4-4.6-10.4-10.3V276.5c0-5.7,4.7-10.3,10.4-10.3h92.6c0,0,0,0,0,0c0,0,0,0,0,0h62.8c5.8,0,10.4,4.6,10.4,10.3
		L425.6,400.2L425.6,400.2z M445.1,215.8c0,15.2-4.6,29.8-13.1,41.7c-4.5-4-10.4-6.4-16.9-6.4h-56.1c0.2-5.4,2.5-10.7,6.4-14.6
		c21.1-21.1,22.4-39.8,23.4-54.8c0.1-1.8,0.3-3.6,0.4-5.3l1.6-1.2c0.8-0.6,1.7-0.8,2.6-0.8h36.1C439.5,186,445,200.6,445.1,215.8
		L445.1,215.8z M457.7,159.4h-64.2c-4.1,0-8.1,1.3-11.4,3.7l-4.5,3.2c0,0,0,0-0.1,0l-41.5,29.9v-17.5c0-10.7-8.7-19.4-19.5-19.4
		h-14.3c-5.8,0-10.4-4.6-10.4-10.3V121c0-4.1-3.4-7.5-7.5-7.5s-7.5,3.4-7.5,7.5v28.1c0,9.1,4.9,17.1,12.1,21.6
		c-0.3,2.7-0.6,5.3-1.1,7.8c-2.1,12.5-9.4,23.8-20,31.1c-18.7,13.1-43.8,9.8-61.6-4.9v-67.8c16.1-21.2,8-55-8.9-74.7
		c24.1-8.7,52.2-13.5,79.4-13V86c0,4.1,3.4,7.5,7.5,7.5s7.5-3.4,7.5-7.5V25.3c0-5.7,4.7-10.3,10.4-10.3h155.4
		c5.8,0,10.4,4.6,10.4,10.3v123.7C468.1,154.8,463.5,159.4,457.7,159.4L457.7,159.4z"/>
	<path class="st0" d="M426.3,49.8h-38.8V37c0-4.1-3.4-7.5-7.5-7.5s-7.5,3.4-7.5,7.5v12.8h-38.8c-4.1,0-7.5,3.4-7.5,7.5
		s3.4,7.5,7.5,7.5h15.6c3.6,16,10.7,30.6,20.6,43.1c-7.6,7.2-16.5,13.3-26.4,17.7l-10.3,4.6c-3.8,1.7-5.5,6.1-3.8,9.9
		c1.2,2.8,4,4.4,6.9,4.4c1,0,2.1-0.2,3-0.7l10.3-4.6c11.4-5.1,21.6-12,30.4-20.3c8.8,8.3,19,15.2,30.4,20.3l10.3,4.6
		c2.6,1.1,7.6,0.8,9.9-3.8c1.7-3.8,0-8.2-3.8-9.9l-10.3-4.6c-9.9-4.4-18.8-10.4-26.4-17.7c9.9-12.5,17-27.2,20.6-43.1h15.6
		c4.1,0,7.5-3.4,7.5-7.5S430.5,49.8,426.3,49.8z M380,96.4c-7-9.4-12.3-20.1-15.3-31.7h30.7C392.3,76.3,387,87.1,380,96.4L380,96.4z
		"/>
	<path class="st0" d="M65,245c3.9,1.5,8.2-0.5,9.7-4.4l6.5-17.2h43.9l6.6,17.3c1.1,3,4,4.8,7,4.8c0.9,0,1.8-0.2,2.7-0.5
		c3.9-1.5,5.8-5.8,4.3-9.7l-33.8-88.7c0-0.1,0-0.1-0.1-0.2c-1.5-3.6-4.9-5.9-8.8-5.9c0,0,0,0,0,0c-3.9,0-7.3,2.3-8.8,5.9
		c0,0.1-0.1,0.1-0.1,0.2l-33.5,88.7C59.2,239.2,61.1,243.6,65,245z M103,165.4l16.4,43H86.8L103,165.4z"/>
	<path class="st0" d="M394.9,293H360c-4.1,0-7.5,3.4-7.5,7.5s3.4,7.5,7.5,7.5h9.9v23.5h-29.8c1.7-3.5,2.7-7.5,2.7-11.8
		c0-14.8-12-26.8-26.8-26.8h-21.7c-4.1,0-7.5,3.4-7.5,7.5s3.4,7.5,7.5,7.5h21.7c6.5,0,11.8,5.3,11.8,11.8s-5.3,11.8-11.8,11.8H292
		c-4.1,0-7.5,3.4-7.5,7.5s3.4,7.5,7.5,7.5h24.1c6.5,0,11.8,5.3,11.8,11.8c0,6.6-5.2,11.8-11.8,11.8c-10.4,0-22.1-1.2-30.8-9.8
		c-2.9-2.9-7.7-2.9-10.6,0c-2.9,2.9-2.9,7.7,0,10.6c12.6,12.6,28.7,14.2,41.4,14.2c14.8,0,26.8-12,26.8-26.8c0-4.2-1-8.2-2.7-11.8
		h29.8v31c0,4.1,3.4,7.5,7.5,7.5s7.5-3.4,7.5-7.5V308h9.9c4.1,0,7.5-3.4,7.5-7.5S399,293,394.9,293L394.9,293z"/>
</g>
</svg>
