<svg width="27" height="27" viewBox="0 0 27 27" fill="none" xmlns="http://www.w3.org/2000/svg">
<g clip-path="url(#clip0_141_7055)">
<path d="M0.805176 5.48722C0.805176 3.7392 2.22638 2.31799 3.97441 2.31799H22.9898C24.7378 2.31799 26.159 3.7392 26.159 5.48722V21.3334C26.159 23.0814 24.7378 24.5026 22.9898 24.5026H3.97441C2.22638 24.5026 0.805176 23.0814 0.805176 21.3334V5.48722ZM3.1821 18.9565V20.5411C3.1821 20.9768 3.53864 21.3334 3.97441 21.3334H5.55902C5.99479 21.3334 6.35133 20.9768 6.35133 20.5411V18.9565C6.35133 18.5207 5.99479 18.1641 5.55902 18.1641H3.97441C3.53864 18.1641 3.1821 18.5207 3.1821 18.9565ZM21.4052 18.1641C20.9694 18.1641 20.6129 18.5207 20.6129 18.9565V20.5411C20.6129 20.9768 20.9694 21.3334 21.4052 21.3334H22.9898C23.4256 21.3334 23.7821 20.9768 23.7821 20.5411V18.9565C23.7821 18.5207 23.4256 18.1641 22.9898 18.1641H21.4052ZM3.1821 12.618V14.2026C3.1821 14.6384 3.53864 14.9949 3.97441 14.9949H5.55902C5.99479 14.9949 6.35133 14.6384 6.35133 14.2026V12.618C6.35133 12.1822 5.99479 11.8257 5.55902 11.8257H3.97441C3.53864 11.8257 3.1821 12.1822 3.1821 12.618ZM21.4052 11.8257C20.9694 11.8257 20.6129 12.1822 20.6129 12.618V14.2026C20.6129 14.6384 20.9694 14.9949 21.4052 14.9949H22.9898C23.4256 14.9949 23.7821 14.6384 23.7821 14.2026V12.618C23.7821 12.1822 23.4256 11.8257 22.9898 11.8257H21.4052ZM3.1821 6.27953V7.86415C3.1821 8.29992 3.53864 8.65646 3.97441 8.65646H5.55902C5.99479 8.65646 6.35133 8.29992 6.35133 7.86415V6.27953C6.35133 5.84376 5.99479 5.48722 5.55902 5.48722H3.97441C3.53864 5.48722 3.1821 5.84376 3.1821 6.27953ZM21.4052 5.48722C20.9694 5.48722 20.6129 5.84376 20.6129 6.27953V7.86415C20.6129 8.29992 20.9694 8.65646 21.4052 8.65646H22.9898C23.4256 8.65646 23.7821 8.29992 23.7821 7.86415V6.27953C23.7821 5.84376 23.4256 5.48722 22.9898 5.48722H21.4052ZM8.72825 7.07184V10.2411C8.72825 11.1176 9.43638 11.8257 10.3129 11.8257H16.6513C17.5278 11.8257 18.2359 11.1176 18.2359 10.2411V7.07184C18.2359 6.19535 17.5278 5.48722 16.6513 5.48722H10.3129C9.43638 5.48722 8.72825 6.19535 8.72825 7.07184ZM10.3129 14.9949C9.43638 14.9949 8.72825 15.703 8.72825 16.5795V19.7488C8.72825 20.6253 9.43638 21.3334 10.3129 21.3334H16.6513C17.5278 21.3334 18.2359 20.6253 18.2359 19.7488V16.5795C18.2359 15.703 17.5278 14.9949 16.6513 14.9949H10.3129Z" fill="#8B5CF6"/>
</g>
<defs>
<clipPath id="clip0_141_7055">
<path d="M0.805176 0.733398H26.159V26.0872H0.805176V0.733398Z" fill="white"/>
</clipPath>
</defs>
</svg>
