<svg width="26" height="27" viewBox="0 0 26 27" fill="none" xmlns="http://www.w3.org/2000/svg">
<g clip-path="url(#clip0_141_7062)">
<path d="M25.0688 1.04548C25.4699 1.3426 25.7076 1.81798 25.7076 2.31812V5.88351V18.9566C25.7076 21.1453 23.5783 22.9181 20.9538 22.9181C18.3292 22.9181 16.1999 21.1453 16.1999 18.9566C16.1999 16.7678 18.3292 14.995 20.9538 14.995C21.5084 14.995 22.0432 15.0743 22.5384 15.2228V8.01284L9.86145 11.8159V22.1258C9.86145 24.3146 7.73212 26.0874 5.10761 26.0874C2.48309 26.0874 0.35376 24.3146 0.35376 22.1258C0.35376 19.9371 2.48309 18.1643 5.10761 18.1643C5.66222 18.1643 6.19703 18.2435 6.69222 18.3921V10.6374V7.07197C6.69222 6.37375 7.15275 5.75476 7.82126 5.55173L23.6674 0.797884C24.1477 0.654278 24.6677 0.743413 25.0688 1.04548Z" fill="#EF4444"/>
</g>
<defs>
<clipPath id="clip0_141_7062">
<path d="M0.35376 0.733398H25.7076V26.0872H0.35376V0.733398Z" fill="white"/>
</clipPath>
</defs>
</svg>
