<?xml version="1.0" encoding="utf-8"?>
<!-- Generator: Adobe Illustrator 26.4.1, SVG Export Plug-In . SVG Version: 6.00 Build 0)  -->
<svg version="1.1" id="Layer_1" xmlns="http://www.w3.org/2000/svg" xmlns:xlink="http://www.w3.org/1999/xlink" x="0px" y="0px"
	 viewBox="0 0 447 447" style="enable-background:new 0 0 447 447;" xml:space="preserve">
<style type="text/css">
	.st0{fill:#FF9D00;}
	.st1{fill:#FFB600;}
</style>
<path class="st0" d="M48.5,417.3h351c12.6,0,24.8-5,33.7-14c8.9-9,13.9-21.1,13.8-33.8v-121c0-26.5-21-48.2-47.5-48.2h-14.7
	L256,79.8c2.3-4.8,3.5-10,3.5-15.3c0-19.6-15.9-35.5-35.5-35.5s-35.5,15.9-35.5,35.5c0,5.3,1.2,10.5,3.5,15.2L63.2,200.3H48.5
	C22,200.3,0,222.1,0,248.5v121C0,396,22,417.3,48.5,417.3z M224,45c10.8,0,19.5,8.7,19.5,19.5S234.8,84,224,84s-19.5-8.7-19.5-19.5
	C204.5,53.8,213.2,45.1,224,45z M202,92.3c12.8,10.3,31.1,10.3,43.9,0l115.5,108.1H86.6L202,92.3z M431,369.3c0,17.7-14.3,32-32,32
	H48c-17.7,0-32-14.3-32-32v-121c0-17.7,14.3-32,32-32h351c17.7,0,32,14.3,32,32V369.3z"/>
<path class="st1" d="M105.5,344.7c3.9,0,7.5-1.6,7.5-4.8v-23.6h7.1l13.7,26.4c1,1.8,2.9,2.9,5,2.8c4.6,0,9.8-4.3,9.8-8.2
	c0-0.6-0.2-1.3-0.5-1.8l-12.2-22.1c7-2.7,12.1-9.3,12.1-20.5c0-16.3-10.9-21.6-24.6-21.6h-20.7c-1.3,0-2.5,0.6-3.4,1.5
	c-0.9,0.9-1.4,2.2-1.3,3.5v63.6C98,343.1,101.6,344.7,105.5,344.7z M113,285.3h10.4c5.6,0,9,2.5,9,9.5s-3.4,9.5-9,9.5H113V285.3z"/>
<path class="st1" d="M173.1,344.3h35.6c3.3,0,4.7-3.2,4.7-6.4c0-3.7-1.7-6.6-4.7-6.6H182v-17h14.9c3.3,0,4.7-3.2,4.7-5.9
	c0-3.2-1.7-6.1-4.7-6.1H182v-17h26.7c3,0,4.7-3.4,4.7-7.1c0-3.2-1.4-6.9-4.7-6.9h-35.6c-3.4,0-7.1,1.9-7.1,5.1v63.5
	C166,343.1,169.7,344.3,173.1,344.3z"/>
<path class="st1" d="M238,344.7c3.9,0,8-1.6,8-4.8v-34l18.9,34.6c1.9,3.5,4.9,4.2,8.5,4.2c3.9,0,7.6-1.6,7.6-4.8v-63.6
	c0-3.3-3.6-4.7-7.5-4.7s-7.5,1.4-7.5,4.7v34l-16.4-30.9c-3.8-7.3-6.1-7.8-11.7-7.8c-3.9,0-8,1.5-8,4.8v63.5
	C230,343.1,234.1,344.7,238,344.7z"/>
<path class="st1" d="M302.2,285.3H316v54.6c0,3.2,4.1,4.8,8,4.8s8-1.6,8-4.8v-54.6h13.4c3,0,4.7-3.3,4.7-7.1c0-3.3-1.4-6.9-4.7-6.9
	h-43.2c-3.3,0-4.7,3.6-4.7,6.9C297.5,282,299.2,285.3,302.2,285.3z"/>
</svg>
