<svg id="Layer_1" enable-background="new 0 0 100 100" height="512" viewBox="0 0 100 100" width="512" xmlns="http://www.w3.org/2000/svg"><g><path d="m87.515 14.739h-75.03c-3.576 0-6.485 2.909-6.485 6.485v46.208c0 3.576 2.909 6.485 6.485 6.485h75.029c3.576 0 6.485-2.909 6.485-6.485v-46.208c.001-3.576-2.908-6.485-6.484-6.485zm3.485 52.693c0 1.922-1.563 3.485-3.485 3.485h-75.03c-1.922.001-3.485-1.563-3.485-3.485v-46.208c0-1.922 1.563-3.485 3.485-3.485h75.029c1.922 0 3.485 1.563 3.485 3.485v46.208z"/><path d="m59.967 43.07-18.301-11.874c-.946-.655-2.354.103-2.316 1.258v23.748c0 .55.301 1.056.784 1.318.482.262 1.071.24 1.532-.06l18.302-11.874c.897-.546.901-1.969-.001-2.516zm-17.618 10.371v-18.225l14.046 9.113z"/><path d="m76.775 82.261h-53.55c-1.953.028-1.987 2.965 0 3h53.55c1.953-.028 1.987-2.965 0-3z"/></g></svg>