<?xml version="1.0"?>
<svg xmlns="http://www.w3.org/2000/svg" id="line" viewBox="0 0 64 64"><path d="M59,5.5a.99974.99974,0,0,0-1,1v3H53v-3a1,1,0,0,0-2,0v3H13v-3a1,1,0,0,0-2,0v3H6v-3a1,1,0,0,0-2,0v40a1,1,0,0,0,2,0v-3h5v3a1,1,0,0,0,2,0v-3H33.54a1,1,0,1,0,0-2H13v-30H51V32.04a1,1,0,1,0,2,0V27.5h5v8.81982a1,1,0,0,0,2,0V6.5A.99974.99974,0,0,0,59,5.5ZM6,27.5h5v6H6Zm5-2H6v-6h5Zm-5,16v-6h5v6Zm5-24H6v-6h5Zm47-6v6H53v-6Zm-5,14v-6h5v6Z"/><path d="M40.125,26.5a.99959.99959,0,0,0-.50391-.86816l-12.25-7A1,1,0,0,0,25.875,19.5v14a.99985.99985,0,0,0,1.49609.86816l12.25-7A.99959.99959,0,0,0,40.125,26.5Zm-12.25,5.27686V21.22314L37.10938,26.5Z"/><path d="M48,34.5a12,12,0,1,0,12,12A12.01343,12.01343,0,0,0,48,34.5Zm0,22a10,10,0,1,1,10-10A10.01146,10.01146,0,0,1,48,56.5Z"/><path d="M53.08887,45.5H49V39.417a1,1,0,0,0-2,0V46.5a.99974.99974,0,0,0,1,1h5.08887a1,1,0,0,0,0-2Z"/></svg>
