<svg width="9" height="9" viewBox="0 0 9 9" fill="none" xmlns="http://www.w3.org/2000/svg">
<path d="M5.21775 0.638366L6.00129 2.20545C6.10687 2.42217 6.39028 2.62778 6.62923 2.67224L8.04628 2.90563C8.95207 3.05567 9.16324 3.7114 8.51307 4.36713L7.40722 5.47298C7.22384 5.65636 7.11825 6.01757 7.17938 6.27875L7.49613 7.64578C7.7462 8.72384 7.16827 9.14618 6.21801 8.57936L4.88988 7.79026C4.65093 7.64578 4.25082 7.64578 4.01187 7.79026L2.68374 8.57936C1.73349 9.14062 1.15556 8.72384 1.40562 7.64578L1.72238 6.27875C1.77239 6.01201 1.66681 5.65081 1.48342 5.46742L0.377574 4.36158C-0.272598 3.7114 -0.0614309 3.05567 0.844365 2.90008L2.26141 2.66668C2.50036 2.62778 2.78377 2.41662 2.88935 2.19989L3.67289 0.632808C4.10078 -0.21186 4.78986 -0.21186 5.21775 0.638366Z" fill="white"/>
</svg>
