<svg width="25" height="30" viewBox="0 0 25 30" fill="none" xmlns="http://www.w3.org/2000/svg">
<path d="M24.1233 29.6869H0.35376V0.107788H24.1233V29.6869Z" stroke="#E5E7EB"/>
<g clip-path="url(#clip0_141_7042)">
<path d="M2.99479 6.44617C1.53809 6.44617 0.35376 7.6305 0.35376 9.08719V11.7282C0.35376 12.0914 0.659128 12.3761 1.00164 12.4958C1.77744 12.764 2.33453 13.5027 2.33453 14.3692C2.33453 15.2358 1.77744 15.9745 1.00164 16.2427C0.659128 16.3624 0.35376 16.6471 0.35376 17.0103V19.6513C0.35376 21.108 1.53809 22.2923 2.99479 22.2923H21.482C22.9387 22.2923 24.123 21.108 24.123 19.6513V17.0103C24.123 16.6471 23.8176 16.3624 23.4751 16.2427C22.6993 15.9745 22.1422 15.2358 22.1422 14.3692C22.1422 13.5027 22.6993 12.764 23.4751 12.4958C23.8176 12.3761 24.123 12.0914 24.123 11.7282V9.08719C24.123 7.6305 22.9387 6.44617 21.482 6.44617H2.99479ZM5.63581 11.068V17.6705C5.63581 18.0337 5.93293 18.3308 6.29607 18.3308H18.1807C18.5438 18.3308 18.8409 18.0337 18.8409 17.6705V11.068C18.8409 10.7048 18.5438 10.4077 18.1807 10.4077H6.29607C5.93293 10.4077 5.63581 10.7048 5.63581 11.068ZM4.3153 10.4077C4.3153 9.6773 4.9054 9.08719 5.63581 9.08719H18.8409C19.5713 9.08719 20.1615 9.6773 20.1615 10.4077V18.3308C20.1615 19.0612 19.5713 19.6513 18.8409 19.6513H5.63581C4.9054 19.6513 4.3153 19.0612 4.3153 18.3308V10.4077Z" fill="#10B981"/>
</g>
<defs>
<clipPath id="clip0_141_7042">
<path d="M0.35376 3.80518H24.123V24.9334H0.35376V3.80518Z" fill="white"/>
</clipPath>
</defs>
</svg>
