<svg height="512" viewBox="0 0 24 24" width="512" xmlns="http://www.w3.org/2000/svg"><g id="Layer_2" data-name="Layer 2"><path d="m19 22.75h-14a3.754 3.754 0 0 1 -3.75-3.75v-10a3.754 3.754 0 0 1 3.75-3.75h14a3.755 3.755 0 0 1 3.75 3.75v10a3.755 3.755 0 0 1 -3.75 3.75zm-14-16a2.252 2.252 0 0 0 -2.25 2.25v10a2.252 2.252 0 0 0 2.25 2.25h14a2.253 2.253 0 0 0 2.25-2.25v-10a2.253 2.253 0 0 0 -2.25-2.25z"/><path d="m10.932 17.622a1.794 1.794 0 0 1 -1.792-1.792v-3.66a1.791 1.791 0 0 1 2.593-1.6l3.136 1.568a1.792 1.792 0 0 1 .194 3.093l-3.138 2.089a1.782 1.782 0 0 1 -.993.302zm0-5.745a.3.3 0 0 0 -.153.045.285.285 0 0 0 -.138.248v3.66a.292.292 0 0 0 .453.242l3.137-2.091a.28.28 0 0 0 .129-.26.284.284 0 0 0 -.161-.244l-3.137-1.567a.285.285 0 0 0 -.131-.033z"/><path d="m12 6.75a.744.744 0 0 1 -.53-.22l-4-4a.75.75 0 0 1 1.06-1.06l3.47 3.469 3.47-3.469a.75.75 0 0 1 1.06 1.06l-4 4a.744.744 0 0 1 -.53.22z"/></g></svg>