<svg width="28" height="22" viewBox="0 0 28 22" fill="none" xmlns="http://www.w3.org/2000/svg">
<g clip-path="url(#clip0_141_7034)">
<path d="M6.74748 0.805176C7.62304 0.805176 8.46273 1.15299 9.08184 1.7721C9.70095 2.39121 10.0488 3.2309 10.0488 4.10646C10.0488 4.98201 9.70095 5.82171 9.08184 6.44082C8.46273 7.05993 7.62304 7.40774 6.74748 7.40774C5.87193 7.40774 5.03224 7.05993 4.41312 6.44082C3.79401 5.82171 3.4462 4.98201 3.4462 4.10646C3.4462 3.2309 3.79401 2.39121 4.41312 1.7721C5.03224 1.15299 5.87193 0.805176 6.74748 0.805176ZM21.9334 0.805176C22.8089 0.805176 23.6486 1.15299 24.2677 1.7721C24.8869 2.39121 25.2347 3.2309 25.2347 4.10646C25.2347 4.98201 24.8869 5.82171 24.2677 6.44082C23.6486 7.05993 22.8089 7.40774 21.9334 7.40774C21.0578 7.40774 20.2181 7.05993 19.599 6.44082C18.9799 5.82171 18.6321 4.98201 18.6321 4.10646C18.6321 3.2309 18.9799 2.39121 19.599 1.7721C20.2181 1.15299 21.0578 0.805176 21.9334 0.805176ZM0.805176 13.1313C0.805176 10.7008 2.77769 8.72825 5.20826 8.72825H6.97032C7.62645 8.72825 8.24957 8.87268 8.81079 9.12853C8.75714 9.42565 8.73238 9.73514 8.73238 10.0488C8.73238 11.6251 9.42565 13.0406 10.5192 14.0103C10.5109 14.0103 10.5027 14.0103 10.4903 14.0103H1.68414C1.20133 14.0103 0.805176 13.6142 0.805176 13.1313ZM17.5303 14.0103C17.522 14.0103 17.5138 14.0103 17.5014 14.0103C18.5991 13.0406 19.2882 11.6251 19.2882 10.0488C19.2882 9.73514 19.2593 9.42977 19.2098 9.12853C19.771 8.86856 20.3942 8.72825 21.0503 8.72825H22.8123C25.2429 8.72825 27.2154 10.7008 27.2154 13.1313C27.2154 13.6183 26.8193 14.0103 26.3365 14.0103H17.5303ZM10.0488 10.0488C10.0488 8.9981 10.4661 7.99047 11.2091 7.24753C11.952 6.5046 12.9596 6.08723 14.0103 6.08723C15.061 6.08723 16.0686 6.5046 16.8115 7.24753C17.5545 7.99047 17.9718 8.9981 17.9718 10.0488C17.9718 11.0994 17.5545 12.1071 16.8115 12.85C16.0686 13.5929 15.061 14.0103 14.0103 14.0103C12.9596 14.0103 11.952 13.5929 11.2091 12.85C10.4661 12.1071 10.0488 11.0994 10.0488 10.0488ZM6.08723 20.8316C6.08723 17.7944 8.55081 15.3308 11.588 15.3308H16.4326C19.4698 15.3308 21.9334 17.7944 21.9334 20.8316C21.9334 21.4382 21.4423 21.9334 20.8316 21.9334H7.18903C6.58242 21.9334 6.08723 21.4423 6.08723 20.8316Z" fill="#3B82F6"/>
</g>
<defs>
<clipPath id="clip0_141_7034">
<path d="M0.805176 0.805176H27.2154V21.9334H0.805176V0.805176Z" fill="white"/>
</clipPath>
</defs>
</svg>
