<svg width="11" height="10" viewBox="0 0 11 10" fill="none" xmlns="http://www.w3.org/2000/svg">
<path d="M9.18862 2.17933C8.51778 2.11266 7.84695 2.06266 7.17195 2.02516V2.021L7.08028 1.47933C7.01778 1.096 6.92612 0.520996 5.95112 0.520996H4.85945C3.88862 0.520996 3.79695 1.071 3.73028 1.47516L3.64278 2.0085C3.25528 2.0335 2.86778 2.0585 2.48028 2.096L1.63028 2.17933C1.45528 2.196 1.33028 2.35016 1.34695 2.521C1.36362 2.69183 1.51362 2.81683 1.68862 2.80016L2.53862 2.71683C4.72195 2.50016 6.92195 2.5835 9.13028 2.80433C9.14278 2.80433 9.15112 2.80433 9.16362 2.80433C9.32195 2.80433 9.45945 2.6835 9.47612 2.521C9.48862 2.35016 9.36362 2.196 9.18862 2.17933Z" fill="#FEFDFF"/>
<path d="M8.4219 3.39199C8.3219 3.28783 8.1844 3.22949 8.04273 3.22949H2.77607C2.6344 3.22949 2.49273 3.28783 2.3969 3.39199C2.30107 3.49616 2.2469 3.63783 2.25523 3.78366L2.51357 8.05866C2.5594 8.69199 2.61773 9.48366 4.0719 9.48366H6.7469C8.20107 9.48366 8.2594 8.69616 8.30523 8.05866L8.56357 3.78783C8.5719 3.63783 8.51773 3.49616 8.4219 3.39199ZM6.10107 7.39616H4.71357C4.54273 7.39616 4.40107 7.25449 4.40107 7.08366C4.40107 6.91283 4.54273 6.77116 4.71357 6.77116H6.10107C6.2719 6.77116 6.41357 6.91283 6.41357 7.08366C6.41357 7.25449 6.2719 7.39616 6.10107 7.39616ZM6.45107 5.72949H4.36773C4.1969 5.72949 4.05523 5.58783 4.05523 5.41699C4.05523 5.24616 4.1969 5.10449 4.36773 5.10449H6.45107C6.6219 5.10449 6.76357 5.24616 6.76357 5.41699C6.76357 5.58783 6.6219 5.72949 6.45107 5.72949Z" fill="#FEFDFF"/>
</svg>
