<?xml version="1.0" encoding="utf-8"?>
<!-- Generator: Adobe Illustrator 26.4.1, SVG Export Plug-In . SVG Version: 6.00 Build 0)  -->
<svg version="1.1" id="Layer_3" xmlns="http://www.w3.org/2000/svg" xmlns:xlink="http://www.w3.org/1999/xlink" x="0px" y="0px"
	 viewBox="0 0 512 512" style="enable-background:new 0 0 512 512;" xml:space="preserve">
<style type="text/css">
	.st0{fill:#A100FF;}
</style>
<path class="st0" d="M394.7,170.7H292.4l67.1-67.1c4.2-4.2,4.2-10.9,0-15.1c-4.2-4.2-10.9-4.2-15.1,0l-77.8,77.8l-77.8-77.8
	c-4.2-4.2-10.9-4.2-15.1,0c-4.2,4.2-4.2,10.9,0,15.1l67.1,67.1H138.7c-29.5,0-53.3,23.9-53.3,53.3v170.7c0,29.5,23.9,53.3,53.3,53.3
	h256c29.5,0,53.3-23.9,53.3-53.3V224C448,194.5,424.1,170.7,394.7,170.7z M106.7,394.7V224c0-17.7,14.3-32,32-32h202.7v234.7H138.7
	C121,426.7,106.7,412.3,106.7,394.7z M426.7,394.7c0,17.7-14.3,32-32,32h-32V192h32c17.7,0,32,14.3,32,32V394.7z M405.3,245.3
	c0,5.9-4.8,10.7-10.7,10.7c-5.9,0-10.7-4.8-10.7-10.7c0-5.9,4.8-10.7,10.7-10.7C400.6,234.7,405.3,239.4,405.3,245.3z M405.3,309.3
	c0,5.9-4.8,10.7-10.7,10.7c-5.9,0-10.7-4.8-10.7-10.7s4.8-10.7,10.7-10.7C400.6,298.7,405.3,303.4,405.3,309.3z M405.3,373.3
	c0,5.9-4.8,10.7-10.7,10.7c-5.9,0-10.7-4.8-10.7-10.7s4.8-10.7,10.7-10.7C400.6,362.7,405.3,367.4,405.3,373.3z M284.4,290.2
	l-93.5-46.7c-10.5-5.3-23.4-1-28.6,9.5c-1.5,3-2.3,6.2-2.2,9.5v93.5c0,11.8,9.5,21.3,21.3,21.3c3.3,0,6.6-0.8,9.5-2.2l93.5-46.6
	c10.6-5.2,14.9-18,9.7-28.6C292,295.7,288.6,292.3,284.4,290.2L284.4,290.2z M181.3,356.1v-93.5l93.5,46.7L181.3,356.1z"/>
</svg>
