<svg id="Layer_1" enable-background="new 0 0 30 30" height="512" viewBox="0 0 30 30" width="512" xmlns="http://www.w3.org/2000/svg"><g><path d="m26.315 3.687h-22.63c-1.893.003-3.426 1.537-3.427 3.43v12.742c.001 1.893 1.534 3.427 3.427 3.429h8.307l-2.992 1.587c-.887.412-.27 1.769.626 1.363.051-.039 5.312-2.809 5.374-2.85 0 0 5.293 2.813 5.293 2.813.108.058.228.088.351.088.765.031 1.045-1.079.356-1.414 0 0-2.992-1.587-2.992-1.587h8.307c1.892-.002 3.425-1.536 3.427-3.428v-12.743c-.001-1.893-1.534-3.427-3.427-3.43zm1.927 16.171c0 1.065-.862 1.928-1.927 1.929h-22.63c-1.064-.001-1.926-.864-1.927-1.928v-12.742c0-1.065.862-1.928 1.927-1.929h22.63c1.064.001 1.926.864 1.927 1.928z"/><path d="m13.678 10.024h-5.646c-.414 0-.75.336-.75.75s.336.75.75.75h2.073v4.676c0 .414.336.75.75.75s.75-.336.75-.75v-4.676h2.073c.981-.004.981-1.495 0-1.5z"/><path d="m22.297 10.1c-.372-.182-.821-.027-1.003.345l-1.972 4.042-1.971-4.044c-.435-.88-1.779-.226-1.351.66 0 0 2.648 5.426 2.648 5.426.258.545 1.089.549 1.348 0 0 0 2.646-5.426 2.646-5.426.182-.372.027-.821-.345-1.003z"/></g></svg>