<svg enable-background="new 0 0 512 512" height="512" viewBox="0 0 512 512" width="512" xmlns="http://www.w3.org/2000/svg"><g id="episodes_boxes_carrousel_video_slider"><path d="m426.801 149.25v-21.35h-42.7v-21.35h-256.201v21.35h-42.7v21.35h-42.7v170.8h42.7v21.35h42.7v21.35h256.2v-21.35h42.7v-21.35h42.7v-170.8zm-341.601 149.45h-21.35v-128.1h21.35zm42.7 21.35h-21.35v-170.8h21.35zm234.85 21.35h-213.5v-213.5h213.5zm42.7-21.35h-21.35v-170.8h21.35zm42.7-21.35h-21.35v-128.1h21.35zm-181.474 96.075c0 5.9-4.775 10.675-10.676 10.675s-10.675-4.774-10.675-10.675 4.775-10.675 10.675-10.675 10.676 4.775 10.676 10.675zm-64.051 0c0 5.9-4.774 10.675-10.675 10.675s-10.675-4.774-10.675-10.675 4.775-10.675 10.675-10.675 10.675 4.775 10.675 10.675zm128.101 0c0 5.9-4.774 10.675-10.675 10.675s-10.676-4.774-10.676-10.675 4.775-10.676 10.676-10.676 10.675 4.776 10.675 10.676zm-117.425-224.175v128.1l106.75-64.05zm21.349 37.717 43.909 26.333-43.909 26.333z"/></g><g id="Layer_1"/></svg>