<svg xmlns="http://www.w3.org/2000/svg" width="32" height="32" viewBox="0 0 32 32"><title>video</title><g id="Layer_2" data-name="Layer 2"><path d="M28.833,26.5H25a3.476,3.476,0,0,0-6.673,0H2a1,1,0,0,0,0,2H18.33A3.476,3.476,0,0,0,25,28.5h3.83a1,1,0,0,0,0-2ZM21.667,29a1.5,1.5,0,1,1,1.5-1.5A1.5,1.5,0,0,1,21.667,29Z"/><path d="M27.86,1H4.14A3.143,3.143,0,0,0,1,4.14V19.86A3.143,3.143,0,0,0,4.14,23H27.86A3.143,3.143,0,0,0,31,19.86V4.14A3.143,3.143,0,0,0,27.86,1ZM29,19.86A1.141,1.141,0,0,1,27.86,21H4.14A1.141,1.141,0,0,1,3,19.86V4.14A1.141,1.141,0,0,1,4.14,3H27.86A1.141,1.141,0,0,1,29,4.14Z"/><path d="M21.53,11.152l-8-5A1,1,0,0,0,12,7V17a1,1,0,0,0,1.53.848l8-5a1,1,0,0,0,0-1.7ZM14,15.2V8.8L19.113,12Z"/></g></svg>