<svg width="61" height="61" viewBox="0 0 61 61" fill="none" xmlns="http://www.w3.org/2000/svg">
<path d="M49.5879 14.8688L34.4904 6.15087C32.025 4.72754 28.975 4.72754 26.4842 6.15087L11.4121 14.8688C8.94669 16.2921 7.42169 18.9355 7.42169 21.8075V39.1925C7.42169 42.0392 8.94669 44.6825 11.4121 46.1313L26.5096 54.8492C28.975 56.2725 32.025 56.2725 34.5159 54.8492L49.6134 46.1313C52.0788 44.708 53.6038 42.0646 53.6038 39.1925V21.8075C53.5784 18.9355 52.0534 16.3175 49.5879 14.8688ZM28.5938 19.698C28.5938 18.6559 29.4579 17.7917 30.5 17.7917C31.5421 17.7917 32.4063 18.6559 32.4063 19.698V33.0417C32.4063 34.0838 31.5421 34.948 30.5 34.948C29.4579 34.948 28.5938 34.0838 28.5938 33.0417V19.698ZM32.8384 42.268C32.7113 42.573 32.5334 42.8525 32.3046 43.1067C31.8217 43.5896 31.1863 43.8438 30.5 43.8438C30.1696 43.8438 29.8392 43.7675 29.5342 43.6405C29.2038 43.5134 28.9496 43.3355 28.6954 43.1067C28.4667 42.8525 28.2888 42.573 28.1363 42.268C28.0092 41.963 27.9584 41.6325 27.9584 41.3021C27.9584 40.6413 28.2125 39.9805 28.6954 39.4975C28.9496 39.2688 29.2038 39.0909 29.5342 38.9638C30.4746 38.5571 31.5929 38.7859 32.3046 39.4975C32.5334 39.7517 32.7113 40.0059 32.8384 40.3363C32.9654 40.6413 33.0417 40.9717 33.0417 41.3021C33.0417 41.6325 32.9654 41.963 32.8384 42.268Z" fill="#FFA9A7"/>
</svg>
